<?xml version="1.0" encoding="UTF-8" standalone="no"?>
<!DOCTYPE svg PUBLIC "-//W3C//DTD SVG 1.1//EN" "http://www.w3.org/Graphics/SVG/1.1/DTD/svg11.dtd">
<svg width="100%" height="100%" viewBox="0 0 48 48" version="1.1" xmlns="http://www.w3.org/2000/svg" xmlns:xlink="http://www.w3.org/1999/xlink" xml:space="preserve" xmlns:serif="http://www.serif.com/" style="fill-rule:evenodd;clip-rule:evenodd;stroke-linejoin:round;stroke-miterlimit:2;">
    <g id="Layer1">
        <g transform="matrix(8.17599e-17,1.30983,-1.15891,7.24097e-17,25.7616,13.7244)">
            <path d="M7.845,13.085L11.473,21.085L4.217,21.085L7.845,13.085Z"/>
        </g>
        <g transform="matrix(8.17599e-17,1.30983,-1.15891,7.24097e-17,62.188,13.7244)">
            <path d="M7.845,13.085L11.473,21.085L4.217,21.085L7.845,13.085Z"/>
        </g>
        <g transform="matrix(1.28571,0,0,2.34937,2.97121,-57.6205)">
            <path d="M10.791,26.826C10.791,26.499 10.304,26.233 9.705,26.233L7.535,26.233C6.936,26.233 6.45,26.499 6.45,26.826L6.45,43.251C6.45,43.579 6.936,43.845 7.535,43.845L9.705,43.845C10.304,43.845 10.791,43.579 10.791,43.251L10.791,26.826Z"/>
        </g>
        <g transform="matrix(1.28571,0,0,2.34937,9.40532,-57.6205)">
            <path d="M10.791,26.826C10.791,26.499 10.304,26.233 9.705,26.233L7.535,26.233C6.936,26.233 6.45,26.499 6.45,26.826L6.45,43.251C6.45,43.579 6.936,43.845 7.535,43.845L9.705,43.845C10.304,43.845 10.791,43.579 10.791,43.251L10.791,26.826Z"/>
        </g>
        <g transform="matrix(1.28571,0,0,2.34937,15.8394,-57.6205)">
            <path d="M10.791,26.826C10.791,26.499 10.304,26.233 9.705,26.233L7.535,26.233C6.936,26.233 6.45,26.499 6.45,26.826L6.45,43.251C6.45,43.579 6.936,43.845 7.535,43.845L9.705,43.845C10.304,43.845 10.791,43.579 10.791,43.251L10.791,26.826Z"/>
        </g>
        <g transform="matrix(1.28571,0,0,2.34937,22.196,-57.6205)">
            <path d="M10.791,26.826C10.791,26.499 10.304,26.233 9.705,26.233L7.535,26.233C6.936,26.233 6.45,26.499 6.45,26.826L6.45,43.251C6.45,43.579 6.936,43.845 7.535,43.845L9.705,43.845C10.304,43.845 10.791,43.579 10.791,43.251L10.791,26.826Z"/>
        </g>
    </g>
</svg>
